<svg version="1.1" viewBox="0.0 0.0 600.0 371.0" fill="none" stroke="none" stroke-linecap="square" stroke-miterlimit="10" width="600" height="371" xmlns:xlink="http://www.w3.org/1999/xlink" xmlns="http://www.w3.org/2000/svg"><path fill="#ffffff" d="M0 0L600.0 0L600.0 371.0L0 371.0L0 0Z" fill-rule="nonzero"/><path stroke="#333333" stroke-width="1.0" stroke-linecap="butt" d="M45.5 332.5L581.5 332.5" fill-rule="nonzero"/><path stroke="#cccccc" stroke-width="1.0" stroke-linecap="butt" d="M45.5 283.5L581.5 283.5" fill-rule="nonzero"/><path stroke="#cccccc" stroke-width="1.0" stroke-linecap="butt" d="M45.5 234.5L581.5 234.5" fill-rule="nonzero"/><path stroke="#cccccc" stroke-width="1.0" stroke-linecap="butt" d="M45.5 185.5L581.5 185.5" fill-rule="nonzero"/><path stroke="#cccccc" stroke-width="1.0" stroke-linecap="butt" d="M45.5 137.5L581.5 137.5" fill-rule="nonzero"/><path stroke="#cccccc" stroke-width="1.0" stroke-linecap="butt" d="M45.5 88.5L581.5 88.5" fill-rule="nonzero"/><clipPath id="id_0"><path d="M45.55 88.28333L581.45 88.28333L581.45 332.45L45.55 332.45L45.55 88.28333Z" clip-rule="nonzero"/></clipPath><path stroke="#000000" stroke-width="0.0" stroke-linecap="butt" stroke-opacity="0.0" clip-path="url(#id_0)" d="M115.0 332.0L89.0 332.0L89.0 139.0C89.0 137.89543 89.89543 137.0 91.0 137.0L113.0 137.0C114.10457 137.0 115.0 137.89543 115.0 139.0Z" fill-rule="nonzero"/><path fill="#4285f4" clip-path="url(#id_0)" d="M115.0 332.0L89.0 332.0L89.0 139.0C89.0 137.89543 89.89543 137.0 91.0 137.0L113.0 137.0C114.10457 137.0 115.0 137.89543 115.0 139.0Z" fill-rule="nonzero"/><path stroke="#000000" stroke-width="0.0" stroke-linecap="butt" stroke-opacity="0.0" clip-path="url(#id_0)" d="M238.0 332.0L212.0 332.0L212.0 112.0C212.0 110.89543 212.89543 110.0 214.0 110.0L236.0 110.0C237.10457 110.0 238.0 110.89543 238.0 112.0Z" fill-rule="nonzero"/><path fill="#4285f4" clip-path="url(#id_0)" d="M238.0 332.0L212.0 332.0L212.0 112.0C212.0 110.89543 212.89543 110.0 214.0 110.0L236.0 110.0C237.10457 110.0 238.0 110.89543 238.0 112.0Z" fill-rule="nonzero"/><path stroke="#000000" stroke-width="0.0" stroke-linecap="butt" stroke-opacity="0.0" clip-path="url(#id_0)" d="M361.0 332.0L335.0 332.0L335.0 127.0C335.0 125.89543 335.89542 125.0 337.0 125.0L359.0 125.0C360.10458 125.0 361.0 125.89543 361.0 127.0Z" fill-rule="nonzero"/><path fill="#4285f4" clip-path="url(#id_0)" d="M361.0 332.0L335.0 332.0L335.0 127.0C335.0 125.89543 335.89542 125.0 337.0 125.0L359.0 125.0C360.10458 125.0 361.0 125.89543 361.0 127.0Z" fill-rule="nonzero"/><path stroke="#000000" stroke-width="0.0" stroke-linecap="butt" stroke-opacity="0.0" clip-path="url(#id_0)" d="M484.0 332.0L458.0 332.0L458.0 90.0C458.0 88.89543 458.89542 88.0 460.0 88.0L482.0 88.0C483.10458 88.0 484.0 88.89543 484.0 90.0Z" fill-rule="nonzero"/><path fill="#4285f4" clip-path="url(#id_0)" d="M484.0 332.0L458.0 332.0L458.0 90.0C458.0 88.89543 458.89542 88.0 460.0 88.0L482.0 88.0C483.10458 88.0 484.0 88.89543 484.0 90.0Z" fill-rule="nonzero"/><path stroke="#000000" stroke-width="0.0" stroke-linecap="butt" stroke-opacity="0.0" clip-path="url(#id_0)" d="M142.0 332.0L116.0 332.0L116.0 221.0C116.0 219.89543 116.89543 219.0 118.0 219.0L140.0 219.0C141.10457 219.0 142.0 219.89543 142.0 221.0Z" fill-rule="nonzero"/><path fill="#fbbc04" clip-path="url(#id_0)" d="M142.0 332.0L116.0 332.0L116.0 221.0C116.0 219.89543 116.89543 219.0 118.0 219.0L140.0 219.0C141.10457 219.0 142.0 219.89543 142.0 221.0Z" fill-rule="nonzero"/><path stroke="#000000" stroke-width="0.0" stroke-linecap="butt" stroke-opacity="0.0" clip-path="url(#id_0)" d="M265.0 332.0L239.0 332.0L239.0 237.0C239.0 235.89543 239.89543 235.0 241.0 235.0L263.0 235.0C264.10458 235.0 265.0 235.89543 265.0 237.0Z" fill-rule="nonzero"/><path fill="#fbbc04" clip-path="url(#id_0)" d="M265.0 332.0L239.0 332.0L239.0 237.0C239.0 235.89543 239.89543 235.0 241.0 235.0L263.0 235.0C264.10458 235.0 265.0 235.89543 265.0 237.0Z" fill-rule="nonzero"/><path stroke="#000000" stroke-width="0.0" stroke-linecap="butt" stroke-opacity="0.0" clip-path="url(#id_0)" d="M388.0 332.0L362.0 332.0L362.0 253.0C362.0 251.89543 362.89542 251.0 364.0 251.0L386.0 251.0C387.10458 251.0 388.0 251.89543 388.0 253.0Z" fill-rule="nonzero"/><path fill="#fbbc04" clip-path="url(#id_0)" d="M388.0 332.0L362.0 332.0L362.0 253.0C362.0 251.89543 362.89542 251.0 364.0 251.0L386.0 251.0C387.10458 251.0 388.0 251.89543 388.0 253.0Z" fill-rule="nonzero"/><path stroke="#000000" stroke-width="0.0" stroke-linecap="butt" stroke-opacity="0.0" clip-path="url(#id_0)" d="M511.0 332.0L485.0 332.0L485.0 172.0C485.0 170.89543 485.89542 170.0 487.0 170.0L509.0 170.0C510.10458 170.0 511.0 170.89543 511.0 172.0Z" fill-rule="nonzero"/><path fill="#fbbc04" clip-path="url(#id_0)" d="M511.0 332.0L485.0 332.0L485.0 172.0C485.0 170.89543 485.89542 170.0 487.0 170.0L509.0 170.0C510.10458 170.0 511.0 170.89543 511.0 172.0Z" fill-rule="nonzero"/><path stroke="#000000" stroke-width="0.0" stroke-linecap="butt" stroke-opacity="0.0" clip-path="url(#id_0)" d="M169.0 332.0L143.0 332.0L143.0 172.0C143.0 170.89543 143.89543 170.0 145.0 170.0L167.0 170.0C168.10457 170.0 169.0 170.89543 169.0 172.0Z" fill-rule="nonzero"/><path fill="#ea4335" clip-path="url(#id_0)" d="M169.0 332.0L143.0 332.0L143.0 172.0C143.0 170.89543 143.89543 170.0 145.0 170.0L167.0 170.0C168.10457 170.0 169.0 170.89543 169.0 172.0Z" fill-rule="nonzero"/><path stroke="#000000" stroke-width="0.0" stroke-linecap="butt" stroke-opacity="0.0" clip-path="url(#id_0)" d="M292.0 332.0L266.0 332.0L266.0 188.0C266.0 186.89543 266.89542 186.0 268.0 186.0L290.0 186.0C291.10458 186.0 292.0 186.89543 292.0 188.0Z" fill-rule="nonzero"/><path fill="#ea4335" clip-path="url(#id_0)" d="M292.0 332.0L266.0 332.0L266.0 188.0C266.0 186.89543 266.89542 186.0 268.0 186.0L290.0 186.0C291.10458 186.0 292.0 186.89543 292.0 188.0Z" fill-rule="nonzero"/><path stroke="#000000" stroke-width="0.0" stroke-linecap="butt" stroke-opacity="0.0" clip-path="url(#id_0)" d="M415.0 332.0L389.0 332.0L389.0 123.0C389.0 121.89543 389.89542 121.0 391.0 121.0L413.0 121.0C414.10458 121.0 415.0 121.89543 415.0 123.0Z" fill-rule="nonzero"/><path fill="#ea4335" clip-path="url(#id_0)" d="M415.0 332.0L389.0 332.0L389.0 123.0C389.0 121.89543 389.89542 121.0 391.0 121.0L413.0 121.0C414.10458 121.0 415.0 121.89543 415.0 123.0Z" fill-rule="nonzero"/><path stroke="#000000" stroke-width="0.0" stroke-linecap="butt" stroke-opacity="0.0" clip-path="url(#id_0)" d="M538.0 332.0L512.0 332.0L512.0 164.0C512.0 162.89543 512.89545 162.0 514.0 162.0L536.0 162.0C537.10455 162.0 538.0 162.89543 538.0 164.0Z" fill-rule="nonzero"/><path fill="#ea4335" clip-path="url(#id_0)" d="M538.0 332.0L512.0 332.0L512.0 164.0C512.0 162.89543 512.89545 162.0 514.0 162.0L536.0 162.0C537.10455 162.0 538.0 162.89543 538.0 164.0Z" fill-rule="nonzero"/><path fill="#000000" d="M33.05 332.21564Q33.05 330.6844 33.3625 329.7625Q33.675 328.825 34.284374 328.325Q34.909374 327.825 35.846874 327.825Q36.534374 327.825 37.05 328.10626Q37.58125 328.3875 37.925 328.91876Q38.26875 329.4344 38.45625 330.1844Q38.64375 330.9344 38.64375 332.21564Q38.64375 333.73126 38.33125 334.65314Q38.034374 335.575 37.409374 336.09064Q36.8 336.59064 35.846874 336.59064Q34.6125 336.59064 33.89375 335.7Q33.05 334.6375 33.05 332.21564ZM34.128124 332.21564Q34.128124 334.325 34.628124 335.02814Q35.128124 335.73126 35.846874 335.73126Q36.58125 335.73126 37.065624 335.02814Q37.565624 334.325 37.565624 332.21564Q37.565624 330.09064 37.065624 329.40314Q36.58125 328.7 35.83125 328.7Q35.1125 328.7 34.675 329.3094Q34.128124 330.09064 34.128124 332.21564Z" fill-rule="nonzero"/><path fill="#000000" d="M37.01875 287.61667L35.971874 287.61667L35.971874 280.89792Q35.58125 281.2573 34.95625 281.6323Q34.346874 281.99167 33.8625 282.16354L33.8625 281.14792Q34.7375 280.72604 35.39375 280.14792Q36.065624 279.55417 36.346874 278.99167L37.01875 278.99167L37.01875 287.61667Z" fill-rule="nonzero"/><path fill="#000000" d="M38.596874 237.76772L38.596874 238.78334L32.909374 238.78334Q32.909374 238.40834 33.034374 238.04897Q33.253124 237.47084 33.721874 236.90834Q34.20625 236.34584 35.1125 235.61147Q36.51875 234.45522 37.003124 233.78334Q37.503124 233.11147 37.503124 232.51772Q37.503124 231.89272 37.05 231.47084Q36.596874 231.03334 35.878124 231.03334Q35.1125 231.03334 34.659374 231.48647Q34.20625 231.93959 34.190624 232.75209L33.1125 232.64272Q33.221874 231.42397 33.940624 230.79897Q34.675 230.15834 35.909374 230.15834Q37.14375 230.15834 37.8625 230.84584Q38.58125 231.53334 38.58125 232.54897Q38.58125 233.06459 38.3625 233.56459Q38.159374 234.04897 37.659374 234.61147Q37.175 235.15834 36.05 236.11147Q35.096874 236.90834 34.815624 237.20522Q34.55 237.48647 34.378124 237.76772L38.596874 237.76772Z" fill-rule="nonzero"/><path fill="#000000" d="M33.05 187.68437L34.1125 187.54375Q34.284374 188.43437 34.721874 188.84062Q35.159374 189.23125 35.784374 189.23125Q36.534374 189.23125 37.05 188.71562Q37.565624 188.2 37.565624 187.43437Q37.565624 186.71562 37.08125 186.24687Q36.6125 185.7625 35.878124 185.7625Q35.58125 185.7625 35.128124 185.8875L35.253124 184.95Q35.3625 184.96562 35.425 184.96562Q36.096874 184.96562 36.628124 184.62187Q37.175 184.2625 37.175 183.52812Q37.175 182.95 36.784374 182.575Q36.39375 182.18437 35.76875 182.18437Q35.159374 182.18437 34.7375 182.575Q34.33125 182.96562 34.221874 183.73125L33.159374 183.54375Q33.346874 182.49687 34.034374 181.91875Q34.721874 181.325 35.7375 181.325Q36.440624 181.325 37.034374 181.6375Q37.628124 181.93437 37.940624 182.45Q38.253124 182.96562 38.253124 183.55937Q38.253124 184.10625 37.95625 184.575Q37.659374 185.02812 37.08125 185.29375Q37.83125 185.46562 38.253124 186.02812Q38.675 186.575 38.675 187.41875Q38.675 188.54375 37.846874 189.325Q37.034374 190.10625 35.784374 190.10625Q34.659374 190.10625 33.909374 189.43437Q33.159374 188.74687 33.05 187.68437Z" fill-rule="nonzero"/><path fill="#000000" d="M36.425 141.11667L36.425 139.05417L32.70625 139.05417L32.70625 138.08542L36.628124 132.52292L37.4875 132.52292L37.4875 138.08542L38.64375 138.08542L38.64375 139.05417L37.4875 139.05417L37.4875 141.11667L36.425 141.11667ZM36.425 138.08542L36.425 134.22604L33.7375 138.08542L36.425 138.08542Z" fill-rule="nonzero"/><path fill="#000000" d="M33.05 90.03333L34.159374 89.93958Q34.284374 90.75208 34.721874 91.15833Q35.175 91.56458 35.815624 91.56458Q36.565624 91.56458 37.096874 90.98646Q37.628124 90.40833 37.628124 89.47083Q37.628124 88.56458 37.1125 88.04896Q36.6125 87.51771 35.784374 87.51771Q35.284374 87.51771 34.8625 87.75208Q34.45625 87.98646 34.221874 88.34583L33.2375 88.22083L34.065624 83.81458L38.346874 83.81458L38.346874 84.81458L34.909374 84.81458L34.45625 87.12708Q35.221874 86.58021 36.065624 86.58021Q37.190624 86.58021 37.95625 87.36146Q38.7375 88.14271 38.7375 89.37708Q38.7375 90.53333 38.065624 91.39271Q37.2375 92.42396 35.815624 92.42396Q34.64375 92.42396 33.89375 91.76771Q33.159374 91.11146 33.05 90.03333Z" fill-rule="nonzero"/><path fill="#000000" d="M76.78502 345.2625Q76.78502 343.1219 77.925644 341.91876Q79.081894 340.7 80.894394 340.7Q82.09752 340.7 83.050644 341.27814Q84.00377 341.84064 84.50377 342.85626Q85.00377 343.8719 85.00377 345.16876Q85.00377 346.46564 84.47252 347.4969Q83.94127 348.52814 82.97252 349.0594Q82.019394 349.59064 80.894394 349.59064Q79.675644 349.59064 78.72252 349.0125Q77.769394 348.41876 77.269394 347.41876Q76.78502 346.40314 76.78502 345.2625ZM77.956894 345.27814Q77.956894 346.84064 78.78502 347.73126Q79.62877 348.6219 80.894394 348.6219Q82.175644 348.6219 83.00377 347.73126Q83.831894 346.825 83.831894 345.15314Q83.831894 344.10626 83.47252 343.325Q83.12877 342.54376 82.44127 342.1219Q81.75377 341.6844 80.91002 341.6844Q79.706894 341.6844 78.831894 342.5125Q77.956894 343.34064 77.956894 345.27814ZM87.72252 349.45L85.363144 343.23126L86.47252 343.23126L87.81627 346.95Q88.019394 347.5594 88.206894 348.2Q88.34752 347.71564 88.59752 347.02814L89.988144 343.23126L91.06627 343.23126L88.706894 349.45L87.72252 349.45ZM96.25377 347.45L97.34752 347.575Q97.09752 348.52814 96.394394 349.0594Q95.69127 349.59064 94.613144 349.59064Q93.25377 349.59064 92.44127 348.7469Q91.644394 347.90314 91.644394 346.3875Q91.644394 344.825 92.456894 343.96564Q93.269394 343.09064 94.550644 343.09064Q95.800644 343.09064 96.581894 343.9344Q97.37877 344.77814 97.37877 346.325Q97.37877 346.41876 97.37877 346.60626L92.738144 346.60626Q92.800644 347.6375 93.31627 348.1844Q93.831894 348.71564 94.613144 348.71564Q95.19127 348.71564 95.59752 348.41876Q96.019394 348.10626 96.25377 347.45ZM92.800644 345.7469L96.269394 345.7469Q96.206894 344.95 95.87877 344.5594Q95.363144 343.95 94.56627 343.95Q93.831894 343.95 93.331894 344.4344Q92.84752 344.91876 92.800644 345.7469ZM98.988144 349.45L98.988144 343.23126L99.94127 343.23126L99.94127 344.16876Q100.300644 343.5125 100.59752 343.3094Q100.91002 343.09064 101.28502 343.09064Q101.81627 343.09064 102.363144 343.41876L102.00377 344.40314Q101.613144 344.16876 101.238144 344.16876Q100.87877 344.16876 100.59752 344.3875Q100.331894 344.59064 100.22252 344.96564Q100.03502 345.52814 100.03502 346.1844L100.03502 349.45L98.988144 349.45ZM107.06627 348.6844Q106.47252 349.1844 105.925644 349.3875Q105.394394 349.59064 104.769394 349.59064Q103.738144 349.59064 103.19127 349.09064Q102.644394 348.59064 102.644394 347.8094Q102.644394 347.35626 102.84752 346.98126Q103.050644 346.59064 103.394394 346.3719Q103.738144 346.1375 104.16002 346.02814Q104.456894 345.9344 105.09752 345.85626Q106.363144 345.71564 106.97252 345.4969Q106.97252 345.27814 106.97252 345.23126Q106.97252 344.575 106.675644 344.3094Q106.269394 343.96564 105.47252 343.96564Q104.738144 343.96564 104.37877 344.23126Q104.019394 344.48126 103.84752 345.1375L102.81627 344.9969Q102.956894 344.34064 103.28502 343.9344Q103.613144 343.52814 104.22252 343.3094Q104.831894 343.09064 105.62877 343.09064Q106.425644 343.09064 106.925644 343.27814Q107.425644 343.46564 107.66002 343.7469Q107.894394 344.02814 107.988144 344.46564Q108.03502 344.73126 108.03502 345.4344L108.03502 346.84064Q108.03502 348.3094 108.09752 348.7Q108.175644 349.09064 108.37877 349.45L107.269394 349.45Q107.113144 349.1219 107.06627 348.6844ZM106.97252 346.325Q106.394394 346.5594 105.25377 346.73126Q104.59752 346.825 104.331894 346.95Q104.06627 347.0594 103.91002 347.27814Q103.769394 347.4969 103.769394 347.77814Q103.769394 348.2 104.081894 348.48126Q104.41002 348.7625 105.019394 348.7625Q105.62877 348.7625 106.09752 348.4969Q106.581894 348.23126 106.800644 347.7625Q106.97252 347.40314 106.97252 346.71564L106.97252 346.325ZM109.97252 349.45L109.97252 340.85626L111.03502 340.85626L111.03502 349.45L109.97252 349.45ZM112.97252 349.45L112.97252 340.85626L114.03502 340.85626L114.03502 349.45L112.97252 349.45ZM118.75377 346.6844L119.81627 346.59064Q119.894394 347.2469 120.175644 347.65314Q120.456894 348.0594 121.03502 348.325Q121.62877 348.575 122.363144 348.575Q123.00377 348.575 123.50377 348.3875Q124.00377 348.1844 124.238144 347.85626Q124.488144 347.5125 124.488144 347.1219Q124.488144 346.71564 124.25377 346.41876Q124.019394 346.10626 123.488144 345.90314Q123.12877 345.7625 121.94127 345.48126Q120.769394 345.2 120.300644 344.95Q119.675644 344.6219 119.37877 344.15314Q119.081894 343.66876 119.081894 343.075Q119.081894 342.4344 119.44127 341.8719Q119.81627 341.29376 120.519394 341.0125Q121.238144 340.71564 122.09752 340.71564Q123.050644 340.71564 123.78502 341.02814Q124.519394 341.325 124.91002 341.9344Q125.300644 342.52814 125.331894 343.27814L124.238144 343.35626Q124.144394 342.54376 123.62877 342.1375Q123.12877 341.71564 122.144394 341.71564Q121.113144 341.71564 120.644394 342.09064Q120.175644 342.46564 120.175644 342.9969Q120.175644 343.46564 120.50377 343.7625Q120.831894 344.0594 122.206894 344.3719Q123.59752 344.6844 124.113144 344.91876Q124.863144 345.27814 125.22252 345.8094Q125.581894 346.325 125.581894 347.02814Q125.581894 347.71564 125.19127 348.325Q124.800644 348.91876 124.06627 349.2625Q123.331894 349.59064 122.41002 349.59064Q121.238144 349.59064 120.44127 349.2625Q119.66002 348.91876 119.206894 348.23126Q118.769394 347.54376 118.75377 346.6844ZM131.06627 348.6844Q130.47252 349.1844 129.92564 349.3875Q129.3944 349.59064 128.7694 349.59064Q127.738144 349.59064 127.19127 349.09064Q126.644394 348.59064 126.644394 347.8094Q126.644394 347.35626 126.84752 346.98126Q127.050644 346.59064 127.394394 346.3719Q127.738144 346.1375 128.16002 346.02814Q128.4569 345.9344 129.09752 345.85626Q130.36314 345.71564 130.97252 345.4969Q130.97252 345.27814 130.97252 345.23126Q130.97252 344.575 130.67564 344.3094Q130.2694 343.96564 129.47252 343.96564Q128.73814 343.96564 128.37877 344.23126Q128.0194 344.48126 127.84752 345.1375L126.81627 344.9969Q126.956894 344.34064 127.28502 343.9344Q127.613144 343.52814 128.22252 343.3094Q128.8319 343.09064 129.62877 343.09064Q130.42564 343.09064 130.92564 343.27814Q131.42564 343.46564 131.66002 343.7469Q131.8944 344.02814 131.98814 344.46564Q132.03502 344.73126 132.03502 345.4344L132.03502 346.84064Q132.03502 348.3094 132.09752 348.7Q132.17564 349.09064 132.37877 349.45L131.2694 349.45Q131.11314 349.1219 131.06627 348.6844ZM130.97252 346.325Q130.3944 346.5594 129.25377 346.73126Q128.59752 346.825 128.3319 346.95Q128.06627 347.0594 127.91002 347.27814Q127.769394 347.4969 127.769394 347.77814Q127.769394 348.2 128.0819 348.48126Q128.41002 348.7625 129.0194 348.7625Q129.62877 348.7625 130.09752 348.4969Q130.5819 348.23126 130.80064 347.7625Q130.97252 347.40314 130.97252 346.71564L130.97252 346.325ZM136.30064 348.5125L136.4569 349.4344Q136.00377 349.52814 135.66002 349.52814Q135.0819 349.52814 134.7694 349.35626Q134.4569 349.16876 134.31627 348.8719Q134.19127 348.575 134.19127 347.6219L134.19127 344.04376L133.42564 344.04376L133.42564 343.23126L134.19127 343.23126L134.19127 341.6844L135.23814 341.0594L135.23814 343.23126L136.30064 343.23126L136.30064 344.04376L135.23814 344.04376L135.23814 347.6844Q135.23814 348.1375 135.28502 348.2625Q135.34752 348.3875 135.47252 348.46564Q135.59752 348.54376 135.8319 348.54376Q136.0194 348.54376 136.30064 348.5125ZM137.00377 342.075L137.00377 340.85626L138.06627 340.85626L138.06627 342.075L137.00377 342.075ZM137.00377 349.45L137.00377 343.23126L138.06627 343.23126L138.06627 349.45L137.00377 349.45ZM139.5819 347.59064L140.61314 347.4344Q140.7069 348.0594 141.09752 348.3875Q141.50377 348.71564 142.23814 348.71564Q142.9569 348.71564 143.30064 348.4344Q143.66002 348.1375 143.66002 347.73126Q143.66002 347.3719 143.34752 347.16876Q143.12877 347.02814 142.2694 346.8094Q141.11314 346.5125 140.66002 346.3094Q140.22252 346.09064 139.98814 345.71564Q139.75377 345.34064 139.75377 344.8719Q139.75377 344.46564 139.94127 344.10626Q140.12877 343.7469 140.4569 343.5125Q140.7069 343.34064 141.12877 343.21564Q141.55064 343.09064 142.05064 343.09064Q142.7694 343.09064 143.31627 343.3094Q143.87877 343.5125 144.1444 343.8719Q144.41002 344.23126 144.50377 344.825L143.47252 344.96564Q143.41002 344.4969 143.06627 344.23126Q142.73814 343.95 142.11314 343.95Q141.3944 343.95 141.0819 344.2Q140.7694 344.4344 140.7694 344.7625Q140.7694 344.96564 140.8944 345.1219Q141.03502 345.29376 141.30064 345.40314Q141.4569 345.46564 142.23814 345.66876Q143.36314 345.98126 143.80064 346.16876Q144.23814 346.35626 144.48814 346.71564Q144.73814 347.075 144.73814 347.6219Q144.73814 348.15314 144.42564 348.6219Q144.12877 349.075 143.55064 349.34064Q142.97252 349.59064 142.23814 349.59064Q141.0194 349.59064 140.37877 349.09064Q139.75377 348.575 139.5819 347.59064ZM146.25377 349.45L146.25377 344.04376L145.31627 344.04376L145.31627 343.23126L146.25377 343.23126L146.25377 342.5594Q146.25377 341.9344 146.36314 341.6375Q146.5194 341.21564 146.8944 340.96564Q147.28502 340.71564 147.97252 340.71564Q148.42564 340.71564 148.9569 340.825L148.80064 341.73126Q148.47252 341.6844 148.17564 341.6844Q147.69127 341.6844 147.48814 341.8875Q147.30064 342.09064 147.30064 342.65314L147.30064 343.23126L148.5194 343.23126L148.5194 344.04376L147.30064 344.04376L147.30064 349.45L146.25377 349.45ZM153.06627 348.6844Q152.47252 349.1844 151.92564 349.3875Q151.3944 349.59064 150.7694 349.59064Q149.73814 349.59064 149.19127 349.09064Q148.6444 348.59064 148.6444 347.8094Q148.6444 347.35626 148.84752 346.98126Q149.05064 346.59064 149.3944 346.3719Q149.73814 346.1375 150.16002 346.02814Q150.4569 345.9344 151.09752 345.85626Q152.36314 345.71564 152.97252 345.4969Q152.97252 345.27814 152.97252 345.23126Q152.97252 344.575 152.67564 344.3094Q152.2694 343.96564 151.47252 343.96564Q150.73814 343.96564 150.37877 344.23126Q150.0194 344.48126 149.84752 345.1375L148.81627 344.9969Q148.9569 344.34064 149.28502 343.9344Q149.61314 343.52814 150.22252 343.3094Q150.8319 343.09064 151.62877 343.09064Q152.42564 343.09064 152.92564 343.27814Q153.42564 343.46564 153.66002 343.7469Q153.8944 344.02814 153.98814 344.46564Q154.03502 344.73126 154.03502 345.4344L154.03502 346.84064Q154.03502 348.3094 154.09752 348.7Q154.17564 349.09064 154.37877 349.45L153.2694 349.45Q153.11314 349.1219 153.06627 348.6844ZM152.97252 346.325Q152.3944 346.5594 151.25377 346.73126Q150.59752 346.825 150.3319 346.95Q150.06627 347.0594 149.91002 347.27814Q149.7694 347.4969 149.7694 347.77814Q149.7694 348.2 150.0819 348.48126Q150.41002 348.7625 151.0194 348.7625Q151.62877 348.7625 152.09752 348.4969Q152.5819 348.23126 152.80064 347.7625Q152.97252 347.40314 152.97252 346.71564L152.97252 346.325ZM160.06627 347.16876L161.09752 347.3094Q160.92564 348.3719 160.22252 348.98126Q159.5194 349.59064 158.50377 349.59064Q157.22252 349.59064 156.44127 348.7625Q155.67564 347.91876 155.67564 346.35626Q155.67564 345.35626 156.00377 344.60626Q156.34752 343.84064 157.0194 343.46564Q157.7069 343.09064 158.5194 343.09064Q159.5194 343.09064 160.16002 343.60626Q160.81627 344.10626 161.00377 345.0594L159.97252 345.21564Q159.8319 344.59064 159.4569 344.27814Q159.0819 343.95 158.55064 343.95Q157.75377 343.95 157.25377 344.52814Q156.75377 345.09064 156.75377 346.325Q156.75377 347.59064 157.23814 348.15314Q157.72252 348.71564 158.48814 348.71564Q159.11314 348.71564 159.5194 348.34064Q159.94127 347.96564 160.06627 347.16876ZM164.30064 348.5125L164.4569 349.4344Q164.00377 349.52814 163.66002 349.52814Q163.0819 349.52814 162.7694 349.35626Q162.4569 349.16876 162.31627 348.8719Q162.19127 348.575 162.19127 347.6219L162.19127 344.04376L161.42564 344.04376L161.42564 343.23126L162.19127 343.23126L162.19127 341.6844L163.23814 341.0594L163.23814 343.23126L164.30064 343.23126L164.30064 344.04376L163.23814 344.04376L163.23814 347.6844Q163.23814 348.1375 163.28502 348.2625Q163.34752 348.3875 163.47252 348.46564Q163.59752 348.54376 163.8319 348.54376Q164.0194 348.54376 164.30064 348.5125ZM165.00377 342.075L165.00377 340.85626L166.06627 340.85626L166.06627 342.075L165.00377 342.075ZM165.00377 349.45L165.00377 343.23126L166.06627 343.23126L166.06627 349.45L165.00377 349.45ZM167.61314 346.34064Q167.61314 344.60626 168.56627 343.77814Q169.36314 343.09064 170.5194 343.09064Q171.80064 343.09064 172.61314 343.9344Q173.44127 344.7625 173.44127 346.2469Q173.44127 347.45 173.0819 348.1375Q172.72252 348.825 172.0194 349.21564Q171.3319 349.59064 170.5194 349.59064Q169.22252 349.59064 168.41002 348.7625Q167.61314 347.91876 167.61314 346.34064ZM168.69127 346.34064Q168.69127 347.52814 169.2069 348.1219Q169.73814 348.71564 170.5194 348.71564Q171.31627 348.71564 171.8319 348.1219Q172.34752 347.52814 172.34752 346.3094Q172.34752 345.15314 171.81627 344.5594Q171.30064 343.96564 170.5194 343.96564Q169.73814 343.96564 169.2069 344.5594Q168.69127 345.1375 168.69127 346.34064ZM175.00377 349.45L175.00377 343.23126L175.94127 343.23126L175.94127 344.10626Q176.62877 343.09064 177.92564 343.09064Q178.48814 343.09064 178.9569 343.29376Q179.44127 343.4969 179.67564 343.825Q179.91002 344.15314 180.00377 344.59064Q180.05064 344.8875 180.05064 345.6219L180.05064 349.45L179.00377 349.45L179.00377 345.66876Q179.00377 345.0125 178.87877 344.7Q178.75377 344.3875 178.44127 344.2Q178.12877 343.9969 177.7069 343.9969Q177.03502 343.9969 176.53502 344.4344Q176.05064 344.85626 176.05064 346.04376L176.05064 349.45L175.00377 349.45Z" fill-rule="nonzero"/><path fill="#000000" d="M219.85542 349.45L219.85542 340.85626L226.05855 340.85626L226.05855 341.8719L220.99605 341.8719L220.99605 344.4969L225.74605 344.4969L225.74605 345.5125L220.99605 345.5125L220.99605 348.4344L226.26167 348.4344L226.26167 349.45L219.85542 349.45ZM231.76167 348.6844Q231.16792 349.1844 230.62105 349.3875Q230.0898 349.59064 229.4648 349.59064Q228.43355 349.59064 227.88667 349.09064Q227.3398 348.59064 227.3398 347.8094Q227.3398 347.35626 227.54292 346.98126Q227.74605 346.59064 228.0898 346.3719Q228.43355 346.1375 228.85542 346.02814Q229.1523 345.9344 229.79292 345.85626Q231.05855 345.71564 231.66792 345.4969Q231.66792 345.27814 231.66792 345.23126Q231.66792 344.575 231.37105 344.3094Q230.9648 343.96564 230.16792 343.96564Q229.43355 343.96564 229.07417 344.23126Q228.7148 344.48126 228.54292 345.1375L227.51167 344.9969Q227.6523 344.34064 227.98042 343.9344Q228.30855 343.52814 228.91792 343.3094Q229.5273 343.09064 230.32417 343.09064Q231.12105 343.09064 231.62105 343.27814Q232.12105 343.46564 232.35542 343.7469Q232.5898 344.02814 232.68355 344.46564Q232.73042 344.73126 232.73042 345.4344L232.73042 346.84064Q232.73042 348.3094 232.79292 348.7Q232.87105 349.09064 233.07417 349.45L231.9648 349.45Q231.80855 349.1219 231.76167 348.6844ZM231.66792 346.325Q231.0898 346.5594 229.94917 346.73126Q229.29292 346.825 229.0273 346.95Q228.76167 347.0594 228.60542 347.27814Q228.4648 347.4969 228.4648 347.77814Q228.4648 348.2 228.7773 348.48126Q229.10542 348.7625 229.7148 348.7625Q230.32417 348.7625 230.79292 348.4969Q231.2773 348.23126 231.49605 347.7625Q231.66792 347.40314 231.66792 346.71564L231.66792 346.325ZM234.2773 347.59064L235.30855 347.4344Q235.4023 348.0594 235.79292 348.3875Q236.19917 348.71564 236.93355 348.71564Q237.6523 348.71564 237.99605 348.4344Q238.35542 348.1375 238.35542 347.73126Q238.35542 347.3719 238.04292 347.16876Q237.82417 347.02814 236.9648 346.8094Q235.80855 346.5125 235.35542 346.3094Q234.91792 346.09064 234.68355 345.71564Q234.44917 345.34064 234.44917 344.8719Q234.44917 344.46564 234.63667 344.10626Q234.82417 343.7469 235.1523 343.5125Q235.4023 343.34064 235.82417 343.21564Q236.24605 343.09064 236.74605 343.09064Q237.4648 343.09064 238.01167 343.3094Q238.57417 343.5125 238.8398 343.8719Q239.10542 344.23126 239.19917 344.825L238.16792 344.96564Q238.10542 344.4969 237.76167 344.23126Q237.43355 343.95 236.80855 343.95Q236.0898 343.95 235.7773 344.2Q235.4648 344.4344 235.4648 344.7625Q235.4648 344.96564 235.5898 345.1219Q235.73042 345.29376 235.99605 345.40314Q236.1523 345.46564 236.93355 345.66876Q238.05855 345.98126 238.49605 346.16876Q238.93355 346.35626 239.18355 346.71564Q239.43355 347.075 239.43355 347.6219Q239.43355 348.15314 239.12105 348.6219Q238.82417 349.075 238.24605 349.34064Q237.66792 349.59064 236.93355 349.59064Q235.7148 349.59064 235.07417 349.09064Q234.44917 348.575 234.2773 347.59064ZM244.94917 347.45L246.04292 347.575Q245.79292 348.52814 245.0898 349.0594Q244.38667 349.59064 243.30855 349.59064Q241.94917 349.59064 241.13667 348.7469Q240.3398 347.90314 240.3398 346.3875Q240.3398 344.825 241.1523 343.96564Q241.9648 343.09064 243.24605 343.09064Q244.49605 343.09064 245.2773 343.9344Q246.07417 344.77814 246.07417 346.325Q246.07417 346.41876 246.07417 346.60626L241.43355 346.60626Q241.49605 347.6375 242.01167 348.1844Q242.5273 348.71564 243.30855 348.71564Q243.88667 348.71564 244.29292 348.41876Q244.7148 348.10626 244.94917 347.45ZM241.49605 345.7469L244.9648 345.7469Q244.9023 344.95 244.57417 344.5594Q244.05855 343.95 243.26167 343.95Q242.5273 343.95 242.0273 344.4344Q241.54292 344.91876 241.49605 345.7469ZM250.30855 346.34064Q250.30855 344.60626 251.26167 343.77814Q252.05855 343.09064 253.2148 343.09064Q254.49605 343.09064 255.30855 343.9344Q256.13666 344.7625 256.13666 346.2469Q256.13666 347.45 255.7773 348.1375Q255.41792 348.825 254.7148 349.21564Q254.0273 349.59064 253.2148 349.59064Q251.91792 349.59064 251.10542 348.7625Q250.30855 347.91876 250.30855 346.34064ZM251.38667 346.34064Q251.38667 347.52814 251.9023 348.1219Q252.43355 348.71564 253.2148 348.71564Q254.01167 348.71564 254.5273 348.1219Q255.04292 347.52814 255.04292 346.3094Q255.04292 345.15314 254.51167 344.5594Q253.99605 343.96564 253.2148 343.96564Q252.43355 343.96564 251.9023 344.5594Q251.38667 345.1375 251.38667 346.34064ZM257.94916 349.45L257.94916 344.04376L257.01166 344.04376L257.01166 343.23126L257.94916 343.23126L257.94916 342.5594Q257.94916 341.9344 258.05853 341.6375Q258.21478 341.21564 258.58978 340.96564Q258.9804 340.71564 259.6679 340.71564Q260.12103 340.71564 260.65228 340.825L260.49603 341.73126Q260.1679 341.6844 259.87103 341.6844Q259.38666 341.6844 259.18353 341.8875Q258.99603 342.09064 258.99603 342.65314L258.99603 343.23126L260.21478 343.23126L260.21478 344.04376L258.99603 344.04376L258.99603 349.45L257.94916 349.45ZM269.46478 340.85626L270.6054 340.85626L270.6054 345.825Q270.6054 347.1219 270.30853 347.8875Q270.01166 348.6375 269.24603 349.1219Q268.4804 349.59064 267.24603 349.59064Q266.0429 349.59064 265.26166 349.1844Q264.49603 348.7625 264.1679 347.98126Q263.83978 347.1844 263.83978 345.825L263.83978 340.85626L264.9804 340.85626L264.9804 345.8094Q264.9804 346.9344 265.18353 347.46564Q265.40228 347.9969 265.90228 348.29376Q266.4179 348.575 267.15228 348.575Q268.40228 348.575 268.93353 348.0125Q269.46478 347.4344 269.46478 345.8094L269.46478 340.85626ZM272.27728 347.59064L273.30853 347.4344Q273.40228 348.0594 273.7929 348.3875Q274.19916 348.71564 274.93353 348.71564Q275.65228 348.71564 275.99603 348.4344Q276.3554 348.1375 276.3554 347.73126Q276.3554 347.3719 276.0429 347.16876Q275.82416 347.02814 274.96478 346.8094Q273.80853 346.5125 273.3554 346.3094Q272.9179 346.09064 272.68353 345.71564Q272.44916 345.34064 272.44916 344.8719Q272.44916 344.46564 272.63666 344.10626Q272.82416 343.7469 273.15228 343.5125Q273.40228 343.34064 273.82416 343.21564Q274.24603 343.09064 274.74603 343.09064Q275.46478 343.09064 276.01166 343.3094Q276.57416 343.5125 276.83978 343.8719Q277.1054 344.23126 277.19916 344.825L276.1679 344.96564Q276.1054 344.4969 275.76166 344.23126Q275.43353 343.95 274.80853 343.95Q274.08978 343.95 273.77728 344.2Q273.46478 344.4344 273.46478 344.7625Q273.46478 344.96564 273.58978 345.1219Q273.7304 345.29376 273.99603 345.40314Q274.15228 345.46564 274.93353 345.66876Q276.05853 345.98126 276.49603 346.16876Q276.93353 346.35626 277.18353 346.71564Q277.43353 347.075 277.43353 347.6219Q277.43353 348.15314 277.12103 348.6219Q276.82416 349.075 276.24603 349.34064Q275.6679 349.59064 274.93353 349.59064Q273.71478 349.59064 273.07416 349.09064Q272.44916 348.575 272.27728 347.59064ZM282.94916 347.45L284.0429 347.575Q283.7929 348.52814 283.08978 349.0594Q282.38666 349.59064 281.30853 349.59064Q279.94916 349.59064 279.13666 348.7469Q278.33978 347.90314 278.33978 346.3875Q278.33978 344.825 279.15228 343.96564Q279.96478 343.09064 281.24603 343.09064Q282.49603 343.09064 283.27728 343.9344Q284.07416 344.77814 284.07416 346.325Q284.07416 346.41876 284.07416 346.60626L279.43353 346.60626Q279.49603 347.6375 280.01166 348.1844Q280.52728 348.71564 281.30853 348.71564Q281.88666 348.71564 282.2929 348.41876Q282.71478 348.10626 282.94916 347.45ZM279.49603 345.7469L282.96478 345.7469Q282.90228 344.95 282.57416 344.5594Q282.05853 343.95 281.26166 343.95Q280.52728 343.95 280.02728 344.4344Q279.5429 344.91876 279.49603 345.7469Z" fill-rule="nonzero"/><path fill="#000000" d="M343.5508 349.45L343.5508 340.85626L349.75394 340.85626L349.75394 341.8719L344.69144 341.8719L344.69144 344.4969L349.44144 344.4969L349.44144 345.5125L344.69144 345.5125L344.69144 348.4344L349.95706 348.4344L349.95706 349.45L343.5508 349.45ZM350.69144 349.45L352.95706 346.21564L350.8633 343.23126L352.1758 343.23126L353.12894 344.6844Q353.39456 345.10626 353.56644 345.3875Q353.81644 344.9969 354.0352 344.7L355.08206 343.23126L356.3477 343.23126L354.19144 346.15314L356.50394 349.45L355.2227 349.45L353.94144 347.5125L353.5977 346.9969L351.95706 349.45L350.69144 349.45ZM357.39456 351.84064L357.39456 343.23126L358.3477 343.23126L358.3477 344.02814Q358.69144 343.5594 359.1133 343.325Q359.5508 343.09064 360.1602 343.09064Q360.95706 343.09064 361.56644 343.4969Q362.1758 343.90314 362.4727 344.65314Q362.7852 345.40314 362.7852 346.29376Q362.7852 347.2469 362.44144 348.0125Q362.1133 348.77814 361.45706 349.1844Q360.8008 349.59064 360.08206 349.59064Q359.5508 349.59064 359.12894 349.3719Q358.70706 349.1375 358.44144 348.8094L358.44144 351.84064L357.39456 351.84064ZM358.3477 346.3719Q358.3477 347.575 358.83206 348.15314Q359.31644 348.71564 360.00394 348.71564Q360.70706 348.71564 361.20706 348.1219Q361.70706 347.52814 361.70706 346.27814Q361.70706 345.09064 361.2227 344.5125Q360.7383 343.91876 360.0508 343.91876Q359.37894 343.91876 358.8633 344.54376Q358.3477 345.16876 358.3477 346.3719ZM364.37894 349.45L364.37894 343.23126L365.33206 343.23126L365.33206 344.16876Q365.69144 343.5125 365.9883 343.3094Q366.3008 343.09064 366.6758 343.09064Q367.20706 343.09064 367.75394 343.41876L367.39456 344.40314Q367.00394 344.16876 366.62894 344.16876Q366.26956 344.16876 365.9883 344.3875Q365.7227 344.59064 365.6133 344.96564Q365.4258 345.52814 365.4258 346.1844L365.4258 349.45L364.37894 349.45ZM372.64456 347.45L373.7383 347.575Q373.4883 348.52814 372.7852 349.0594Q372.08206 349.59064 371.00394 349.59064Q369.64456 349.59064 368.83206 348.7469Q368.0352 347.90314 368.0352 346.3875Q368.0352 344.825 368.8477 343.96564Q369.6602 343.09064 370.94144 343.09064Q372.19144 343.09064 372.9727 343.9344Q373.76956 344.77814 373.76956 346.325Q373.76956 346.41876 373.76956 346.60626L369.12894 346.60626Q369.19144 347.6375 369.70706 348.1844Q370.2227 348.71564 371.00394 348.71564Q371.58206 348.71564 371.9883 348.41876Q372.4102 348.10626 372.64456 347.45ZM369.19144 345.7469L372.6602 345.7469Q372.5977 344.95 372.26956 344.5594Q371.75394 343.95 370.95706 343.95Q370.2227 343.95 369.7227 344.4344Q369.2383 344.91876 369.19144 345.7469ZM374.9727 347.59064L376.00394 347.4344Q376.0977 348.0594 376.4883 348.3875Q376.89456 348.71564 377.62894 348.71564Q378.3477 348.71564 378.69144 348.4344Q379.0508 348.1375 379.0508 347.73126Q379.0508 347.3719 378.7383 347.16876Q378.51956 347.02814 377.6602 346.8094Q376.50394 346.5125 376.0508 346.3094Q375.6133 346.09064 375.37894 345.71564Q375.14456 345.34064 375.14456 344.8719Q375.14456 344.46564 375.33206 344.10626Q375.51956 343.7469 375.8477 343.5125Q376.0977 343.34064 376.51956 343.21564Q376.94144 343.09064 377.44144 343.09064Q378.1602 343.09064 378.70706 343.3094Q379.26956 343.5125 379.5352 343.8719Q379.8008 344.23126 379.89456 344.825L378.8633 344.96564Q378.8008 344.4969 378.45706 344.23126Q378.12894 343.95 377.50394 343.95Q376.7852 343.95 376.4727 344.2Q376.1602 344.4344 376.1602 344.7625Q376.1602 344.96564 376.2852 345.1219Q376.4258 345.29376 376.69144 345.40314Q376.8477 345.46564 377.62894 345.66876Q378.75394 345.98126 379.19144 346.16876Q379.62894 346.35626 379.87894 346.71564Q380.12894 347.075 380.12894 347.6219Q380.12894 348.15314 379.81644 348.6219Q379.51956 349.075 378.94144 349.34064Q378.3633 349.59064 377.62894 349.59064Q376.4102 349.59064 375.76956 349.09064Q375.14456 348.575 374.9727 347.59064ZM380.9727 347.59064L382.00394 347.4344Q382.0977 348.0594 382.4883 348.3875Q382.89456 348.71564 383.62894 348.71564Q384.3477 348.71564 384.69144 348.4344Q385.0508 348.1375 385.0508 347.73126Q385.0508 347.3719 384.7383 347.16876Q384.51956 347.02814 383.6602 346.8094Q382.50394 346.5125 382.0508 346.3094Q381.6133 346.09064 381.37894 345.71564Q381.14456 345.34064 381.14456 344.8719Q381.14456 344.46564 381.33206 344.10626Q381.51956 343.7469 381.8477 343.5125Q382.0977 343.34064 382.51956 343.21564Q382.94144 343.09064 383.44144 343.09064Q384.1602 343.09064 384.70706 343.3094Q385.26956 343.5125 385.5352 343.8719Q385.8008 344.23126 385.89456 344.825L384.8633 344.96564Q384.8008 344.4969 384.45706 344.23126Q384.12894 343.95 383.50394 343.95Q382.7852 343.95 382.4727 344.2Q382.1602 344.4344 382.1602 344.7625Q382.1602 344.96564 382.2852 345.1219Q382.4258 345.29376 382.69144 345.40314Q382.8477 345.46564 383.62894 345.66876Q384.75394 345.98126 385.19144 346.16876Q385.62894 346.35626 385.87894 346.71564Q386.12894 347.075 386.12894 347.6219Q386.12894 348.15314 385.81644 348.6219Q385.51956 349.075 384.94144 349.34064Q384.3633 349.59064 383.62894 349.59064Q382.4102 349.59064 381.76956 349.09064Q381.14456 348.575 380.9727 347.59064ZM387.39456 342.075L387.39456 340.85626L388.45706 340.85626L388.45706 342.075L387.39456 342.075ZM387.39456 349.45L387.39456 343.23126L388.45706 343.23126L388.45706 349.45L387.39456 349.45ZM392.1133 349.45L389.75394 343.23126L390.8633 343.23126L392.20706 346.95Q392.4102 347.5594 392.5977 348.2Q392.7383 347.71564 392.9883 347.02814L394.37894 343.23126L395.45706 343.23126L393.0977 349.45L392.1133 349.45ZM396.39456 342.075L396.39456 340.85626L397.45706 340.85626L397.45706 342.075L396.39456 342.075ZM396.39456 349.45L396.39456 343.23126L397.45706 343.23126L397.45706 349.45L396.39456 349.45ZM401.69144 348.5125L401.8477 349.4344Q401.39456 349.52814 401.0508 349.52814Q400.4727 349.52814 400.1602 349.35626Q399.8477 349.16876 399.70706 348.8719Q399.58206 348.575 399.58206 347.6219L399.58206 344.04376L398.81644 344.04376L398.81644 343.23126L399.58206 343.23126L399.58206 341.6844L400.62894 341.0594L400.62894 343.23126L401.69144 343.23126L401.69144 344.04376L400.62894 344.04376L400.62894 347.6844Q400.62894 348.1375 400.6758 348.2625Q400.7383 348.3875 400.8633 348.46564Q400.9883 348.54376 401.2227 348.54376Q401.4102 348.54376 401.69144 348.5125ZM402.3477 351.84064L402.2227 350.85626Q402.56644 350.95 402.83206 350.95Q403.1758 350.95 403.37894 350.825Q403.5977 350.71564 403.7383 350.5125Q403.83206 350.34064 404.06644 349.71564Q404.08206 349.6375 404.1602 349.46564L401.7852 343.23126L402.9258 343.23126L404.2227 346.825Q404.4727 347.5125 404.6758 348.27814Q404.8633 347.54376 405.1133 346.85626L406.44144 343.23126L407.4883 343.23126L405.12894 349.5594Q404.7383 350.575 404.5352 350.96564Q404.25394 351.4969 403.87894 351.73126Q403.51956 351.98126 403.01956 351.98126Q402.7227 351.98126 402.3477 351.84064Z" fill-rule="nonzero"/><path fill="#000000" d="M452.74622 349.45L452.74622 340.85626L458.94934 340.85626L458.94934 341.8719L453.88684 341.8719L453.88684 344.4969L458.63684 344.4969L458.63684 345.5125L453.88684 345.5125L453.88684 348.4344L459.15247 348.4344L459.15247 349.45L452.74622 349.45ZM464.65247 348.6844Q464.05872 349.1844 463.51184 349.3875Q462.9806 349.59064 462.3556 349.59064Q461.32434 349.59064 460.77747 349.09064Q460.2306 348.59064 460.2306 347.8094Q460.2306 347.35626 460.43372 346.98126Q460.63684 346.59064 460.9806 346.3719Q461.32434 346.1375 461.74622 346.02814Q462.0431 345.9344 462.68372 345.85626Q463.94934 345.71564 464.55872 345.4969Q464.55872 345.27814 464.55872 345.23126Q464.55872 344.575 464.26184 344.3094Q463.8556 343.96564 463.05872 343.96564Q462.32434 343.96564 461.96497 344.23126Q461.6056 344.48126 461.43372 345.1375L460.40247 344.9969Q460.5431 344.34064 460.87122 343.9344Q461.19934 343.52814 461.80872 343.3094Q462.4181 343.09064 463.21497 343.09064Q464.01184 343.09064 464.51184 343.27814Q465.01184 343.46564 465.24622 343.7469Q465.4806 344.02814 465.57434 344.46564Q465.62122 344.73126 465.62122 345.4344L465.62122 346.84064Q465.62122 348.3094 465.68372 348.7Q465.76184 349.09064 465.96497 349.45L464.8556 349.45Q464.69934 349.1219 464.65247 348.6844ZM464.55872 346.325Q463.9806 346.5594 462.83997 346.73126Q462.18372 346.825 461.9181 346.95Q461.65247 347.0594 461.49622 347.27814Q461.3556 347.4969 461.3556 347.77814Q461.3556 348.2 461.6681 348.48126Q461.99622 348.7625 462.6056 348.7625Q463.21497 348.7625 463.68372 348.4969Q464.1681 348.23126 464.38684 347.7625Q464.55872 347.40314 464.55872 346.71564L464.55872 346.325ZM467.1681 347.59064L468.19934 347.4344Q468.2931 348.0594 468.68372 348.3875Q469.08997 348.71564 469.82434 348.71564Q470.5431 348.71564 470.88684 348.4344Q471.24622 348.1375 471.24622 347.73126Q471.24622 347.3719 470.93372 347.16876Q470.71497 347.02814 469.8556 346.8094Q468.69934 346.5125 468.24622 346.3094Q467.80872 346.09064 467.57434 345.71564Q467.33997 345.34064 467.33997 344.8719Q467.33997 344.46564 467.52747 344.10626Q467.71497 343.7469 468.0431 343.5125Q468.2931 343.34064 468.71497 343.21564Q469.13684 343.09064 469.63684 343.09064Q470.3556 343.09064 470.90247 343.3094Q471.46497 343.5125 471.7306 343.8719Q471.99622 344.23126 472.08997 344.825L471.05872 344.96564Q470.99622 344.4969 470.65247 344.23126Q470.32434 343.95 469.69934 343.95Q468.9806 343.95 468.6681 344.2Q468.3556 344.4344 468.3556 344.7625Q468.3556 344.96564 468.4806 345.1219Q468.62122 345.29376 468.88684 345.40314Q469.0431 345.46564 469.82434 345.66876Q470.94934 345.98126 471.38684 346.16876Q471.82434 346.35626 472.07434 346.71564Q472.32434 347.075 472.32434 347.6219Q472.32434 348.15314 472.01184 348.6219Q471.71497 349.075 471.13684 349.34064Q470.55872 349.59064 469.82434 349.59064Q468.6056 349.59064 467.96497 349.09064Q467.33997 348.575 467.1681 347.59064ZM477.83997 347.45L478.93372 347.575Q478.68372 348.52814 477.9806 349.0594Q477.27747 349.59064 476.19934 349.59064Q474.83997 349.59064 474.02747 348.7469Q473.2306 347.90314 473.2306 346.3875Q473.2306 344.825 474.0431 343.96564Q474.8556 343.09064 476.13684 343.09064Q477.38684 343.09064 478.1681 343.9344Q478.96497 344.77814 478.96497 346.325Q478.96497 346.41876 478.96497 346.60626L474.32434 346.60626Q474.38684 347.6375 474.90247 348.1844Q475.4181 348.71564 476.19934 348.71564Q476.77747 348.71564 477.18372 348.41876Q477.6056 348.10626 477.83997 347.45ZM474.38684 345.7469L477.8556 345.7469Q477.7931 344.95 477.46497 344.5594Q476.94934 343.95 476.15247 343.95Q475.4181 343.95 474.9181 344.4344Q474.43372 344.91876 474.38684 345.7469ZM483.19934 346.34064Q483.19934 344.60626 484.15247 343.77814Q484.94934 343.09064 486.1056 343.09064Q487.38684 343.09064 488.19934 343.9344Q489.02747 344.7625 489.02747 346.2469Q489.02747 347.45 488.6681 348.1375Q488.30872 348.825 487.6056 349.21564Q486.9181 349.59064 486.1056 349.59064Q484.80872 349.59064 483.99622 348.7625Q483.19934 347.91876 483.19934 346.34064ZM484.27747 346.34064Q484.27747 347.52814 484.7931 348.1219Q485.32434 348.71564 486.1056 348.71564Q486.90247 348.71564 487.4181 348.1219Q487.93372 347.52814 487.93372 346.3094Q487.93372 345.15314 487.40247 344.5594Q486.88684 343.96564 486.1056 343.96564Q485.32434 343.96564 484.7931 344.5594Q484.27747 345.1375 484.27747 346.34064ZM490.83997 349.45L490.83997 344.04376L489.90247 344.04376L489.90247 343.23126L490.83997 343.23126L490.83997 342.5594Q490.83997 341.9344 490.94934 341.6375Q491.1056 341.21564 491.4806 340.96564Q491.87122 340.71564 492.55872 340.71564Q493.01184 340.71564 493.5431 340.825L493.38684 341.73126Q493.05872 341.6844 492.76184 341.6844Q492.27747 341.6844 492.07434 341.8875Q491.88684 342.09064 491.88684 342.65314L491.88684 343.23126L493.1056 343.23126L493.1056 344.04376L491.88684 344.04376L491.88684 349.45L490.83997 349.45ZM496.6681 349.45L496.6681 340.85626L497.80872 340.85626L497.80872 348.4344L502.0431 348.4344L502.0431 349.45L496.6681 349.45ZM507.83997 347.45L508.93372 347.575Q508.68372 348.52814 507.9806 349.0594Q507.27747 349.59064 506.19934 349.59064Q504.83997 349.59064 504.02747 348.7469Q503.2306 347.90314 503.2306 346.3875Q503.2306 344.825 504.0431 343.96564Q504.8556 343.09064 506.13684 343.09064Q507.38684 343.09064 508.1681 343.9344Q508.96497 344.77814 508.96497 346.325Q508.96497 346.41876 508.96497 346.60626L504.32434 346.60626Q504.38684 347.6375 504.90247 348.1844Q505.4181 348.71564 506.19934 348.71564Q506.77747 348.71564 507.18372 348.41876Q507.6056 348.10626 507.83997 347.45ZM504.38684 345.7469L507.8556 345.7469Q507.7931 344.95 507.46497 344.5594Q506.94934 343.95 506.15247 343.95Q505.4181 343.95 504.9181 344.4344Q504.43372 344.91876 504.38684 345.7469ZM514.65247 348.6844Q514.0587 349.1844 513.51184 349.3875Q512.9806 349.59064 512.3556 349.59064Q511.32434 349.59064 510.77747 349.09064Q510.2306 348.59064 510.2306 347.8094Q510.2306 347.35626 510.43372 346.98126Q510.63684 346.59064 510.9806 346.3719Q511.32434 346.1375 511.74622 346.02814Q512.0431 345.9344 512.6837 345.85626Q513.94934 345.71564 514.5587 345.4969Q514.5587 345.27814 514.5587 345.23126Q514.5587 344.575 514.26184 344.3094Q513.8556 343.96564 513.0587 343.96564Q512.32434 343.96564 511.96497 344.23126Q511.6056 344.48126 511.43372 345.1375L510.40247 344.9969Q510.5431 344.34064 510.87122 343.9344Q511.19934 343.52814 511.80872 343.3094Q512.4181 343.09064 513.21497 343.09064Q514.01184 343.09064 514.51184 343.27814Q515.01184 343.46564 515.2462 343.7469Q515.4806 344.02814 515.57434 344.46564Q515.6212 344.73126 515.6212 345.4344L515.6212 346.84064Q515.6212 348.3094 515.6837 348.7Q515.76184 349.09064 515.96497 349.45L514.8556 349.45Q514.69934 349.1219 514.65247 348.6844ZM514.5587 346.325Q513.9806 346.5594 512.83997 346.73126Q512.1837 346.825 511.9181 346.95Q511.65247 347.0594 511.49622 347.27814Q511.3556 347.4969 511.3556 347.77814Q511.3556 348.2 511.6681 348.48126Q511.99622 348.7625 512.6056 348.7625Q513.21497 348.7625 513.6837 348.4969Q514.1681 348.23126 514.38684 347.7625Q514.5587 347.40314 514.5587 346.71564L514.5587 346.325ZM517.57434 349.45L517.57434 343.23126L518.52747 343.23126L518.52747 344.16876Q518.88684 343.5125 519.1837 343.3094Q519.4962 343.09064 519.8712 343.09064Q520.40247 343.09064 520.94934 343.41876L520.58997 344.40314Q520.19934 344.16876 519.82434 344.16876Q519.46497 344.16876 519.1837 344.3875Q518.9181 344.59064 518.8087 344.96564Q518.6212 345.52814 518.6212 346.1844L518.6212 349.45L517.57434 349.45ZM521.58997 349.45L521.58997 343.23126L522.52747 343.23126L522.52747 344.10626Q523.21497 343.09064 524.51184 343.09064Q525.07434 343.09064 525.5431 343.29376Q526.02747 343.4969 526.26184 343.825Q526.4962 344.15314 526.58997 344.59064Q526.63684 344.8875 526.63684 345.6219L526.63684 349.45L525.58997 349.45L525.58997 345.66876Q525.58997 345.0125 525.46497 344.7Q525.33997 344.3875 525.02747 344.2Q524.71497 343.9969 524.2931 343.9969Q523.6212 343.9969 523.1212 344.4344Q522.63684 344.85626 522.63684 346.04376L522.63684 349.45L521.58997 349.45ZM528.58997 342.075L528.58997 340.85626L529.65247 340.85626L529.65247 342.075L528.58997 342.075ZM528.58997 349.45L528.58997 343.23126L529.65247 343.23126L529.65247 349.45L528.58997 349.45ZM531.58997 349.45L531.58997 343.23126L532.52747 343.23126L532.52747 344.10626Q533.21497 343.09064 534.51184 343.09064Q535.07434 343.09064 535.5431 343.29376Q536.02747 343.4969 536.26184 343.825Q536.4962 344.15314 536.58997 344.59064Q536.63684 344.8875 536.63684 345.6219L536.63684 349.45L535.58997 349.45L535.58997 345.66876Q535.58997 345.0125 535.46497 344.7Q535.33997 344.3875 535.02747 344.2Q534.71497 343.9969 534.2931 343.9969Q533.6212 343.9969 533.1212 344.4344Q532.63684 344.85626 532.63684 346.04376L532.63684 349.45L531.58997 349.45ZM538.38684 349.96564L539.4181 350.1219Q539.4806 350.59064 539.77747 350.8094Q540.1681 351.10626 540.83997 351.10626Q541.57434 351.10626 541.96497 350.8094Q542.3712 350.5125 542.51184 349.9969Q542.6056 349.66876 542.58997 348.6375Q541.90247 349.45 540.8712 349.45Q539.58997 349.45 538.88684 348.52814Q538.1837 347.59064 538.1837 346.3094Q538.1837 345.41876 538.4962 344.66876Q538.82434 343.90314 539.4337 343.4969Q540.0431 343.09064 540.8712 343.09064Q541.9806 343.09064 542.69934 343.98126L542.69934 343.23126L543.6681 343.23126L543.6681 348.60626Q543.6681 350.0594 543.3712 350.66876Q543.07434 351.27814 542.4337 351.6219Q541.7931 351.98126 540.8556 351.98126Q539.7462 351.98126 539.0587 351.48126Q538.3712 350.98126 538.38684 349.96564ZM539.26184 346.23126Q539.26184 347.45 539.7462 348.0125Q540.2306 348.575 540.96497 348.575Q541.69934 348.575 542.1837 348.0125Q542.6837 347.45 542.6837 346.2625Q542.6837 345.1219 542.1681 344.54376Q541.6681 343.96564 540.94934 343.96564Q540.2462 343.96564 539.7462 344.54376Q539.26184 345.10626 539.26184 346.23126Z" fill-rule="nonzero"/><path fill="#4285f4" d="M179.5 56.916668C179.5 56.364384 179.94771 55.916668 180.5 55.916668L190.5 55.916668C191.05229 55.916668 191.5 56.364384 191.5 56.916668L191.5 66.916664C191.5 67.46895 191.05229 67.916664 190.5 67.916664L180.5 67.916664C179.94771 67.916664 179.5 67.46895 179.5 66.916664Z" fill-rule="nonzero"/><path fill="#1a1a1a" d="M200.4375 65.916664L200.4375 57.322914L204.25 57.322914Q205.40625 57.322914 206.0 57.55729Q206.59375 57.791664 206.95312 58.385414Q207.3125 58.96354 207.3125 59.666664Q207.3125 60.58854 206.71875 61.21354Q206.125 61.83854 204.89062 62.010414Q205.34375 62.229164 205.57812 62.43229Q206.07812 62.885414 206.51562 63.572914L208.01562 65.916664L206.57812 65.916664L205.45312 64.135414Q204.95312 63.354164 204.625 62.947914Q204.3125 62.541664 204.04688 62.385414Q203.79688 62.21354 203.53125 62.135414Q203.34375 62.104164 202.90625 62.104164L201.57812 62.104164L201.57812 65.916664L200.4375 65.916664ZM201.57812 61.11979L204.03125 61.11979Q204.79688 61.11979 205.23438 60.96354Q205.6875 60.791664 205.90625 60.447914Q206.14062 60.08854 206.14062 59.666664Q206.14062 59.05729 205.6875 58.666664Q205.25 58.27604 204.29688 58.27604L201.57812 58.27604L201.57812 61.11979ZM213.375 65.916664L213.375 64.99479Q212.64062 66.05729 211.39062 66.05729Q210.84375 66.05729 210.35938 65.854164Q209.89062 65.635414 209.65625 65.322914Q209.42188 64.99479 209.32812 64.52604Q209.26562 64.229164 209.26562 63.541664L209.26562 59.697914L210.32812 59.697914L210.32812 63.15104Q210.32812 63.96354 210.39062 64.260414Q210.48438 64.666664 210.79688 64.916664Q211.125 65.15104 211.60938 65.15104Q212.07812 65.15104 212.48438 64.916664Q212.90625 64.666664 213.07812 64.24479Q213.26562 63.822914 213.26562 63.02604L213.26562 59.697914L214.3125 59.697914L214.3125 65.916664L213.375 65.916664ZM216.26562 65.916664L216.26562 57.322914L217.32812 57.322914L217.32812 65.916664L216.26562 65.916664ZM223.54688 63.916664L224.64062 64.041664Q224.39062 64.99479 223.6875 65.52604Q222.98438 66.05729 221.90625 66.05729Q220.54688 66.05729 219.73438 65.21354Q218.9375 64.36979 218.9375 62.854164Q218.9375 61.291664 219.75 60.43229Q220.5625 59.55729 221.84375 59.55729Q223.09375 59.55729 223.875 60.40104Q224.67188 61.24479 224.67188 62.791664Q224.67188 62.885414 224.67188 63.072914L220.03125 63.072914Q220.09375 64.104164 220.60938 64.65104Q221.125 65.18229 221.90625 65.18229Q222.48438 65.18229 222.89062 64.885414Q223.3125 64.572914 223.54688 63.916664ZM220.09375 62.21354L223.5625 62.21354Q223.5 61.416664 223.17188 61.02604Q222.65625 60.416664 221.85938 60.416664Q221.125 60.416664 220.625 60.90104Q220.14062 61.385414 220.09375 62.21354ZM226.28125 65.916664L226.28125 59.697914L227.23438 59.697914L227.23438 60.635414Q227.59375 59.979164 227.89062 59.77604Q228.20312 59.55729 228.57812 59.55729Q229.10938 59.55729 229.65625 59.885414L229.29688 60.86979Q228.90625 60.635414 228.53125 60.635414Q228.17188 60.635414 227.89062 60.854164Q227.625 61.05729 227.51562 61.43229Q227.32812 61.99479 227.32812 62.65104L227.32812 65.916664L226.28125 65.916664Z" fill-rule="nonzero"/><path fill="#fbbc04" d="M245.5 56.916668C245.5 56.364384 245.94771 55.916668 246.5 55.916668L256.5 55.916668C257.05228 55.916668 257.5 56.364384 257.5 56.916668L257.5 66.916664C257.5 67.46895 257.05228 67.916664 256.5 67.916664L246.5 67.916664C245.94771 67.916664 245.5 67.46895 245.5 66.916664Z" fill-rule="nonzero"/><path fill="#1a1a1a" d="M266.375 65.916664L266.375 57.322914L269.60938 57.322914Q270.59375 57.322914 271.1875 57.58854Q271.78125 57.854164 272.10938 58.40104Q272.45312 58.93229 272.45312 59.52604Q272.45312 60.072914 272.15625 60.55729Q271.85938 61.041664 271.25 61.33854Q272.03125 61.572914 272.4375 62.135414Q272.85938 62.68229 272.85938 63.43229Q272.85938 64.02604 272.60938 64.55729Q272.35938 65.072914 271.98438 65.354164Q271.60938 65.635414 271.03125 65.77604Q270.46875 65.916664 269.65625 65.916664L266.375 65.916664ZM267.51562 60.93229L269.375 60.93229Q270.125 60.93229 270.45312 60.83854Q270.89062 60.71354 271.10938 60.416664Q271.32812 60.104164 271.32812 59.65104Q271.32812 59.229164 271.125 58.90104Q270.92188 58.572914 270.53125 58.46354Q270.15625 58.33854 269.23438 58.33854L267.51562 58.33854L267.51562 60.93229ZM267.51562 64.90104L269.65625 64.90104Q270.20312 64.90104 270.42188 64.854164Q270.82812 64.791664 271.07812 64.635414Q271.34375 64.46354 271.51562 64.15104Q271.6875 63.83854 271.6875 63.43229Q271.6875 62.947914 271.4375 62.58854Q271.20312 62.229164 270.76562 62.08854Q270.32812 61.947914 269.5 61.947914L267.51562 61.947914L267.51562 64.90104ZM278.35938 65.15104Q277.76562 65.65104 277.21875 65.854164Q276.6875 66.05729 276.0625 66.05729Q275.03125 66.05729 274.48438 65.55729Q273.9375 65.05729 273.9375 64.27604Q273.9375 63.822914 274.14062 63.447914Q274.34375 63.05729 274.6875 62.83854Q275.03125 62.604164 275.45312 62.49479Q275.75 62.40104 276.39062 62.322914Q277.65625 62.18229 278.26562 61.96354Q278.26562 61.74479 278.26562 61.697914Q278.26562 61.041664 277.96875 60.77604Q277.5625 60.43229 276.76562 60.43229Q276.03125 60.43229 275.67188 60.697914Q275.3125 60.947914 275.14062 61.604164L274.10938 61.46354Q274.25 60.80729 274.57812 60.40104Q274.90625 59.99479 275.51562 59.77604Q276.125 59.55729 276.92188 59.55729Q277.71875 59.55729 278.21875 59.74479Q278.71875 59.93229 278.95312 60.21354Q279.1875 60.49479 279.28125 60.93229Q279.32812 61.197914 279.32812 61.90104L279.32812 63.30729Q279.32812 64.77604 279.39062 65.166664Q279.46875 65.55729 279.67188 65.916664L278.5625 65.916664Q278.40625 65.58854 278.35938 65.15104ZM278.26562 62.791664Q277.6875 63.02604 276.54688 63.197914Q275.89062 63.291664 275.625 63.416664Q275.35938 63.52604 275.20312 63.74479Q275.0625 63.96354 275.0625 64.24479Q275.0625 64.666664 275.375 64.947914Q275.70312 65.229164 276.3125 65.229164Q276.92188 65.229164 277.39062 64.96354Q277.875 64.697914 278.09375 64.229164Q278.26562 63.86979 278.26562 63.18229L278.26562 62.791664ZM282.26562 65.916664L281.28125 65.916664L281.28125 57.322914L282.34375 57.322914L282.34375 60.385414Q283.01562 59.55729 284.04688 59.55729Q284.625 59.55729 285.125 59.791664Q285.64062 60.010414 285.96875 60.43229Q286.3125 60.854164 286.5 61.447914Q286.6875 62.041664 286.6875 62.71354Q286.6875 64.30729 285.89062 65.18229Q285.09375 66.05729 284.0 66.05729Q282.89062 66.05729 282.26562 65.135414L282.26562 65.916664ZM282.25 62.760414Q282.25 63.86979 282.5625 64.36979Q283.0625 65.18229 283.90625 65.18229Q284.59375 65.18229 285.09375 64.58854Q285.60938 63.99479 285.60938 62.791664Q285.60938 61.572914 285.125 60.99479Q284.64062 60.416664 283.95312 60.416664Q283.26562 60.416664 282.75 61.02604Q282.25 61.61979 282.25 62.760414ZM289.26562 65.916664L288.28125 65.916664L288.28125 57.322914L289.34375 57.322914L289.34375 60.385414Q290.01562 59.55729 291.04688 59.55729Q291.625 59.55729 292.125 59.791664Q292.64062 60.010414 292.96875 60.43229Q293.3125 60.854164 293.5 61.447914Q293.6875 62.041664 293.6875 62.71354Q293.6875 64.30729 292.89062 65.18229Q292.09375 66.05729 291.0 66.05729Q289.89062 66.05729 289.26562 65.135414L289.26562 65.916664ZM289.25 62.760414Q289.25 63.86979 289.5625 64.36979Q290.0625 65.18229 290.90625 65.18229Q291.59375 65.18229 292.09375 64.58854Q292.60938 63.99479 292.60938 62.791664Q292.60938 61.572914 292.125 60.99479Q291.64062 60.416664 290.95312 60.416664Q290.26562 60.416664 289.75 61.02604Q289.25 61.61979 289.25 62.760414ZM295.26562 65.916664L295.26562 57.322914L296.32812 57.322914L296.32812 65.916664L295.26562 65.916664ZM302.54688 63.916664L303.64062 64.041664Q303.39062 64.99479 302.6875 65.52604Q301.98438 66.05729 300.90625 66.05729Q299.54688 66.05729 298.73438 65.21354Q297.9375 64.36979 297.9375 62.854164Q297.9375 61.291664 298.75 60.43229Q299.5625 59.55729 300.84375 59.55729Q302.09375 59.55729 302.875 60.40104Q303.67188 61.24479 303.67188 62.791664Q303.67188 62.885414 303.67188 63.072914L299.03125 63.072914Q299.09375 64.104164 299.60938 64.65104Q300.125 65.18229 300.90625 65.18229Q301.48438 65.18229 301.89062 64.885414Q302.3125 64.572914 302.54688 63.916664ZM299.09375 62.21354L302.5625 62.21354Q302.5 61.416664 302.17188 61.02604Q301.65625 60.416664 300.85938 60.416664Q300.125 60.416664 299.625 60.90104Q299.14062 61.385414 299.09375 62.21354ZM305.375 65.916664L305.375 57.322914L306.51562 57.322914L306.51562 64.90104L310.75 64.90104L310.75 65.916664L305.375 65.916664ZM316.35938 65.15104Q315.76562 65.65104 315.21875 65.854164Q314.6875 66.05729 314.0625 66.05729Q313.03125 66.05729 312.48438 65.55729Q311.9375 65.05729 311.9375 64.27604Q311.9375 63.822914 312.14062 63.447914Q312.34375 63.05729 312.6875 62.83854Q313.03125 62.604164 313.45312 62.49479Q313.75 62.40104 314.39062 62.322914Q315.65625 62.18229 316.26562 61.96354Q316.26562 61.74479 316.26562 61.697914Q316.26562 61.041664 315.96875 60.77604Q315.5625 60.43229 314.76562 60.43229Q314.03125 60.43229 313.67188 60.697914Q313.3125 60.947914 313.14062 61.604164L312.10938 61.46354Q312.25 60.80729 312.57812 60.40104Q312.90625 59.99479 313.51562 59.77604Q314.125 59.55729 314.92188 59.55729Q315.71875 59.55729 316.21875 59.74479Q316.71875 59.93229 316.95312 60.21354Q317.1875 60.49479 317.28125 60.93229Q317.32812 61.197914 317.32812 61.90104L317.32812 63.30729Q317.32812 64.77604 317.39062 65.166664Q317.46875 65.55729 317.67188 65.916664L316.5625 65.916664Q316.40625 65.58854 316.35938 65.15104ZM316.26562 62.791664Q315.6875 63.02604 314.54688 63.197914Q313.89062 63.291664 313.625 63.416664Q313.35938 63.52604 313.20312 63.74479Q313.0625 63.96354 313.0625 64.24479Q313.0625 64.666664 313.375 64.947914Q313.70312 65.229164 314.3125 65.229164Q314.92188 65.229164 315.39062 64.96354Q315.875 64.697914 316.09375 64.229164Q316.26562 63.86979 316.26562 63.18229L316.26562 62.791664ZM320.26562 65.916664L319.28125 65.916664L319.28125 57.322914L320.34375 57.322914L320.34375 60.385414Q321.01562 59.55729 322.04688 59.55729Q322.625 59.55729 323.125 59.791664Q323.64062 60.010414 323.96875 60.43229Q324.3125 60.854164 324.5 61.447914Q324.6875 62.041664 324.6875 62.71354Q324.6875 64.30729 323.89062 65.18229Q323.09375 66.05729 322.0 66.05729Q320.89062 66.05729 320.26562 65.135414L320.26562 65.916664ZM320.25 62.760414Q320.25 63.86979 320.5625 64.36979Q321.0625 65.18229 321.90625 65.18229Q322.59375 65.18229 323.09375 64.58854Q323.60938 63.99479 323.60938 62.791664Q323.60938 61.572914 323.125 60.99479Q322.64062 60.416664 321.95312 60.416664Q321.26562 60.416664 320.75 61.02604Q320.25 61.61979 320.25 62.760414ZM327.26562 65.916664L326.28125 65.916664L326.28125 57.322914L327.34375 57.322914L327.34375 60.385414Q328.01562 59.55729 329.04688 59.55729Q329.625 59.55729 330.125 59.791664Q330.64062 60.010414 330.96875 60.43229Q331.3125 60.854164 331.5 61.447914Q331.6875 62.041664 331.6875 62.71354Q331.6875 64.30729 330.89062 65.18229Q330.09375 66.05729 329.0 66.05729Q327.89062 66.05729 327.26562 65.135414L327.26562 65.916664ZM327.25 62.760414Q327.25 63.86979 327.5625 64.36979Q328.0625 65.18229 328.90625 65.18229Q329.59375 65.18229 330.09375 64.58854Q330.60938 63.99479 330.60938 62.791664Q330.60938 61.572914 330.125 60.99479Q329.64062 60.416664 328.95312 60.416664Q328.26562 60.416664 327.75 61.02604Q327.25 61.61979 327.25 62.760414ZM333.26562 65.916664L333.26562 57.322914L334.32812 57.322914L334.32812 65.916664L333.26562 65.916664ZM340.54688 63.916664L341.64062 64.041664Q341.39062 64.99479 340.6875 65.52604Q339.98438 66.05729 338.90625 66.05729Q337.54688 66.05729 336.73438 65.21354Q335.9375 64.36979 335.9375 62.854164Q335.9375 61.291664 336.75 60.43229Q337.5625 59.55729 338.84375 59.55729Q340.09375 59.55729 340.875 60.40104Q341.67188 61.24479 341.67188 62.791664Q341.67188 62.885414 341.67188 63.072914L337.03125 63.072914Q337.09375 64.104164 337.60938 64.65104Q338.125 65.18229 338.90625 65.18229Q339.48438 65.18229 339.89062 64.885414Q340.3125 64.572914 340.54688 63.916664ZM337.09375 62.21354L340.5625 62.21354Q340.5 61.416664 340.17188 61.02604Q339.65625 60.416664 338.85938 60.416664Q338.125 60.416664 337.625 60.90104Q337.14062 61.385414 337.09375 62.21354Z" fill-rule="nonzero"/><path fill="#ea4335" d="M358.5 56.916668C358.5 56.364384 358.94772 55.916668 359.5 55.916668L369.5 55.916668C370.05228 55.916668 370.5 56.364384 370.5 56.916668L370.5 66.916664C370.5 67.46895 370.05228 67.916664 369.5 67.916664L359.5 67.916664C358.94772 67.916664 358.5 67.46895 358.5 66.916664Z" fill-rule="nonzero"/><path fill="#1a1a1a" d="M379.04688 63.15104L380.10938 63.05729Q380.1875 63.71354 380.46875 64.11979Q380.75 64.52604 381.32812 64.791664Q381.92188 65.041664 382.65625 65.041664Q383.29688 65.041664 383.79688 64.854164Q384.29688 64.65104 384.53125 64.322914Q384.78125 63.979164 384.78125 63.58854Q384.78125 63.18229 384.54688 62.885414Q384.3125 62.572914 383.78125 62.36979Q383.42188 62.229164 382.23438 61.947914Q381.0625 61.666664 380.59375 61.416664Q379.96875 61.08854 379.67188 60.61979Q379.375 60.135414 379.375 59.541664Q379.375 58.90104 379.73438 58.33854Q380.10938 57.760414 380.8125 57.479164Q381.53125 57.18229 382.39062 57.18229Q383.34375 57.18229 384.07812 57.49479Q384.8125 57.791664 385.20312 58.40104Q385.59375 58.99479 385.625 59.74479L384.53125 59.822914Q384.4375 59.010414 383.92188 58.604164Q383.42188 58.18229 382.4375 58.18229Q381.40625 58.18229 380.9375 58.55729Q380.46875 58.93229 380.46875 59.46354Q380.46875 59.93229 380.79688 60.229164Q381.125 60.52604 382.5 60.83854Q383.89062 61.15104 384.40625 61.385414Q385.15625 61.74479 385.51562 62.27604Q385.875 62.791664 385.875 63.49479Q385.875 64.18229 385.48438 64.791664Q385.09375 65.385414 384.35938 65.729164Q383.625 66.05729 382.70312 66.05729Q381.53125 66.05729 380.73438 65.729164Q379.95312 65.385414 379.5 64.697914Q379.0625 64.010414 379.04688 63.15104ZM387.29688 65.916664L387.29688 59.697914L388.23438 59.697914L388.23438 60.572914Q388.92188 59.55729 390.21875 59.55729Q390.78125 59.55729 391.25 59.760414Q391.73438 59.96354 391.96875 60.291664Q392.20312 60.61979 392.29688 61.05729Q392.34375 61.354164 392.34375 62.08854L392.34375 65.916664L391.29688 65.916664L391.29688 62.135414Q391.29688 61.479164 391.17188 61.166664Q391.04688 60.854164 390.73438 60.666664Q390.42188 60.46354 390.0 60.46354Q389.32812 60.46354 388.82812 60.90104Q388.34375 61.322914 388.34375 62.510414L388.34375 65.916664L387.29688 65.916664ZM393.90625 62.80729Q393.90625 61.072914 394.85938 60.24479Q395.65625 59.55729 396.8125 59.55729Q398.09375 59.55729 398.90625 60.40104Q399.73438 61.229164 399.73438 62.71354Q399.73438 63.916664 399.375 64.604164Q399.01562 65.291664 398.3125 65.68229Q397.625 66.05729 396.8125 66.05729Q395.51562 66.05729 394.70312 65.229164Q393.90625 64.385414 393.90625 62.80729ZM394.98438 62.80729Q394.98438 63.99479 395.5 64.58854Q396.03125 65.18229 396.8125 65.18229Q397.60938 65.18229 398.125 64.58854Q398.64062 63.99479 398.64062 62.77604Q398.64062 61.61979 398.10938 61.02604Q397.59375 60.43229 396.8125 60.43229Q396.03125 60.43229 395.5 61.02604Q394.98438 61.604164 394.98438 62.80729ZM401.28125 65.916664L401.28125 59.697914L402.23438 59.697914L402.23438 60.635414Q402.59375 59.979164 402.89062 59.77604Q403.20312 59.55729 403.57812 59.55729Q404.10938 59.55729 404.65625 59.885414L404.29688 60.86979Q403.90625 60.635414 403.53125 60.635414Q403.17188 60.635414 402.89062 60.854164Q402.625 61.05729 402.51562 61.43229Q402.32812 61.99479 402.32812 62.65104L402.32812 65.916664L401.28125 65.916664ZM405.29688 65.916664L405.29688 57.322914L406.35938 57.322914L406.35938 62.229164L408.84375 59.697914L410.21875 59.697914L407.82812 61.99479L410.45312 65.916664L409.15625 65.916664L407.09375 62.729164L406.35938 63.447914L406.35938 65.916664L405.29688 65.916664ZM415.54688 63.916664L416.64062 64.041664Q416.39062 64.99479 415.6875 65.52604Q414.98438 66.05729 413.90625 66.05729Q412.54688 66.05729 411.73438 65.21354Q410.9375 64.36979 410.9375 62.854164Q410.9375 61.291664 411.75 60.43229Q412.5625 59.55729 413.84375 59.55729Q415.09375 59.55729 415.875 60.40104Q416.67188 61.24479 416.67188 62.791664Q416.67188 62.885414 416.67188 63.072914L412.03125 63.072914Q412.09375 64.104164 412.60938 64.65104Q413.125 65.18229 413.90625 65.18229Q414.48438 65.18229 414.89062 64.885414Q415.3125 64.572914 415.54688 63.916664ZM412.09375 62.21354L415.5625 62.21354Q415.5 61.416664 415.17188 61.02604Q414.65625 60.416664 413.85938 60.416664Q413.125 60.416664 412.625 60.90104Q412.14062 61.385414 412.09375 62.21354ZM418.26562 65.916664L418.26562 57.322914L419.32812 57.322914L419.32812 65.916664L418.26562 65.916664Z" fill-rule="nonzero"/><path fill="#000000" d="M218.90625 32.95625L220.6875 32.8Q220.8125 33.8625 221.26562 34.55Q221.73438 35.2375 222.70312 35.675Q223.6875 36.096874 224.92188 36.096874Q226.0 36.096874 226.82812 35.784374Q227.65625 35.45625 228.0625 34.89375Q228.46875 34.33125 228.46875 33.659374Q228.46875 32.9875 228.07812 32.4875Q227.6875 31.9875 226.79688 31.64375Q226.21875 31.409374 224.23438 30.940624Q222.26562 30.471874 221.48438 30.05Q220.45312 29.51875 219.95312 28.721874Q219.45312 27.925 219.45312 26.940624Q219.45312 25.846874 220.0625 24.909374Q220.67188 23.971874 221.85938 23.4875Q223.04688 22.9875 224.48438 22.9875Q226.07812 22.9875 227.29688 23.503124Q228.51562 24.01875 229.15625 25.01875Q229.8125 26.003124 229.85938 27.26875L228.04688 27.409374Q227.90625 26.05 227.0625 25.3625Q226.21875 24.659374 224.5625 24.659374Q222.84375 24.659374 222.04688 25.3Q221.26562 25.925 221.26562 26.8Q221.26562 27.58125 221.82812 28.08125Q222.375 28.58125 224.6875 29.096874Q227.0 29.6125 227.85938 30.003124Q229.10938 30.58125 229.70312 31.471874Q230.29688 32.346874 230.29688 33.503124Q230.29688 34.64375 229.64062 35.659374Q228.98438 36.675 227.75 37.2375Q226.53125 37.8 225.0 37.8Q223.0625 37.8 221.75 37.2375Q220.4375 36.659374 219.6875 35.51875Q218.9375 34.378124 218.90625 32.95625ZM239.10938 37.55L239.10938 36.01875Q237.90625 37.784374 235.82812 37.784374Q234.90625 37.784374 234.10938 37.440624Q233.3125 37.08125 232.92188 36.55Q232.54688 36.01875 232.39062 35.2375Q232.28125 34.721874 232.28125 33.596874L232.28125 27.175L234.03125 27.175L234.03125 32.925Q234.03125 34.3 234.14062 34.784374Q234.3125 35.471874 234.84375 35.878124Q235.39062 36.26875 236.17188 36.26875Q236.96875 36.26875 237.65625 35.8625Q238.35938 35.45625 238.64062 34.76875Q238.9375 34.065624 238.9375 32.7375L238.9375 27.175L240.6875 27.175L240.6875 37.55L239.10938 37.55ZM244.9375 37.55L243.3125 37.55L243.3125 23.2375L245.0625 23.2375L245.0625 28.346874Q246.1875 26.940624 247.90625 26.940624Q248.85938 26.940624 249.71875 27.33125Q250.57812 27.721874 251.125 28.425Q251.67188 29.1125 251.98438 30.096874Q252.29688 31.08125 252.29688 32.20625Q252.29688 34.878124 250.98438 36.33125Q249.67188 37.784374 247.82812 37.784374Q245.98438 37.784374 244.9375 36.253124L244.9375 37.55ZM244.92188 32.284374Q244.92188 34.14375 245.42188 34.9875Q246.26562 36.33125 247.67188 36.33125Q248.82812 36.33125 249.65625 35.33125Q250.5 34.33125 250.5 32.346874Q250.5 30.315624 249.6875 29.3625Q248.89062 28.39375 247.75 28.39375Q246.59375 28.39375 245.75 29.39375Q244.92188 30.39375 244.92188 32.284374ZM254.3125 25.26875L254.3125 23.2375L256.0625 23.2375L256.0625 25.26875L254.3125 25.26875ZM252.07812 41.58125L252.40625 40.08125Q252.9375 40.221874 253.25 40.221874Q253.78125 40.221874 254.04688 39.8625Q254.3125 39.503124 254.3125 38.08125L254.3125 27.175L256.0625 27.175L256.0625 38.1125Q256.0625 40.034374 255.5625 40.784374Q254.9375 41.753124 253.45312 41.753124Q252.75 41.753124 252.07812 41.58125ZM265.42188 34.20625L267.23438 34.440624Q266.8125 36.01875 265.64062 36.909374Q264.48438 37.784374 262.67188 37.784374Q260.40625 37.784374 259.0625 36.39375Q257.73438 34.9875 257.73438 32.45625Q257.73438 29.83125 259.07812 28.39375Q260.42188 26.940624 262.57812 26.940624Q264.65625 26.940624 265.96875 28.3625Q267.29688 29.76875 267.29688 32.346874Q267.29688 32.503124 267.28125 32.815624L259.54688 32.815624Q259.64062 34.51875 260.51562 35.425Q261.39062 36.33125 262.6875 36.33125Q263.65625 36.33125 264.32812 35.83125Q265.01562 35.315624 265.42188 34.20625ZM259.64062 31.3625L265.4375 31.3625Q265.32812 30.065624 264.78125 29.409374Q263.9375 28.39375 262.59375 28.39375Q261.39062 28.39375 260.5625 29.20625Q259.73438 30.003124 259.64062 31.3625ZM276.09375 33.753124L277.8125 33.971874Q277.53125 35.76875 276.35938 36.784374Q275.20312 37.784374 273.5 37.784374Q271.375 37.784374 270.07812 36.39375Q268.78125 35.003124 268.78125 32.409374Q268.78125 30.721874 269.32812 29.471874Q269.89062 28.20625 271.03125 27.58125Q272.17188 26.940624 273.51562 26.940624Q275.20312 26.940624 276.26562 27.8Q277.34375 28.659374 277.65625 30.221874L275.9375 30.4875Q275.70312 29.440624 275.07812 28.925Q274.45312 28.39375 273.57812 28.39375Q272.25 28.39375 271.42188 29.346874Q270.59375 30.3 270.59375 32.346874Q270.59375 34.440624 271.39062 35.39375Q272.1875 36.33125 273.48438 36.33125Q274.51562 36.33125 275.20312 35.70625Q275.90625 35.065624 276.09375 33.753124ZM283.15625 35.971874L283.40625 37.534374Q282.67188 37.690624 282.07812 37.690624Q281.125 37.690624 280.59375 37.39375Q280.07812 37.08125 279.85938 36.596874Q279.64062 36.096874 279.64062 34.51875L279.64062 28.55L278.35938 28.55L278.35938 27.175L279.64062 27.175L279.64062 24.6125L281.39062 23.55L281.39062 27.175L283.15625 27.175L283.15625 28.55L281.39062 28.55L281.39062 34.6125Q281.39062 35.3625 281.48438 35.58125Q281.57812 35.784374 281.78125 35.925Q282.0 36.05 282.39062 36.05Q282.67188 36.05 283.15625 35.971874ZM285.32812 25.253124L285.32812 23.2375L287.09375 23.2375L287.09375 25.253124L285.32812 25.253124ZM285.32812 37.55L285.32812 27.175L287.09375 27.175L287.09375 37.55L285.32812 37.55ZM292.20312 37.55L288.25 27.175L290.10938 27.175L292.34375 33.39375Q292.70312 34.39375 293.0 35.471874Q293.23438 34.659374 293.65625 33.503124L295.95312 27.175L297.76562 27.175L293.84375 37.55L292.20312 37.55ZM306.42188 34.20625L308.23438 34.440624Q307.8125 36.01875 306.64062 36.909374Q305.48438 37.784374 303.67188 37.784374Q301.40625 37.784374 300.0625 36.39375Q298.73438 34.9875 298.73438 32.45625Q298.73438 29.83125 300.07812 28.39375Q301.42188 26.940624 303.57812 26.940624Q305.65625 26.940624 306.96875 28.3625Q308.29688 29.76875 308.29688 32.346874Q308.29688 32.503124 308.28125 32.815624L300.54688 32.815624Q300.64062 34.51875 301.51562 35.425Q302.39062 36.33125 303.6875 36.33125Q304.65625 36.33125 305.32812 35.83125Q306.01562 35.315624 306.42188 34.20625ZM300.64062 31.3625L306.4375 31.3625Q306.32812 30.065624 305.78125 29.409374Q304.9375 28.39375 303.59375 28.39375Q302.39062 28.39375 301.5625 29.20625Q300.73438 30.003124 300.64062 31.3625ZM316.57812 37.55L316.57812 23.2375L322.92188 23.2375Q324.82812 23.2375 325.82812 23.628124Q326.82812 24.003124 327.42188 24.9875Q328.01562 25.95625 328.01562 27.14375Q328.01562 28.659374 327.03125 29.70625Q326.04688 30.753124 323.98438 31.034374Q324.73438 31.39375 325.125 31.753124Q325.95312 32.503124 326.70312 33.659374L329.1875 37.55L326.8125 37.55L324.90625 34.565624Q324.07812 33.284374 323.54688 32.596874Q323.01562 31.909374 322.57812 31.64375Q322.15625 31.3625 321.71875 31.253124Q321.39062 31.190624 320.67188 31.190624L318.46875 31.190624L318.46875 37.55L316.57812 37.55ZM318.46875 29.55L322.54688 29.55Q323.84375 29.55 324.5625 29.284374Q325.29688 29.01875 325.67188 28.425Q326.0625 27.83125 326.0625 27.14375Q326.0625 26.128124 325.32812 25.471874Q324.59375 24.815624 323.0 24.815624L318.46875 24.815624L318.46875 29.55ZM337.09375 36.26875Q336.10938 37.096874 335.20312 37.440624Q334.29688 37.784374 333.26562 37.784374Q331.5625 37.784374 330.64062 36.95625Q329.71875 36.1125 329.71875 34.815624Q329.71875 34.05 330.0625 33.425Q330.42188 32.8 330.98438 32.425Q331.54688 32.034374 332.25 31.83125Q332.76562 31.70625 333.8125 31.565624Q335.9375 31.315624 336.9375 30.971874Q336.95312 30.6125 336.95312 30.503124Q336.95312 29.440624 336.45312 28.9875Q335.78125 28.39375 334.45312 28.39375Q333.20312 28.39375 332.60938 28.83125Q332.03125 29.26875 331.75 30.378124L330.03125 30.14375Q330.26562 29.034374 330.79688 28.3625Q331.32812 27.675 332.34375 27.315624Q333.35938 26.940624 334.70312 26.940624Q336.03125 26.940624 336.85938 27.253124Q337.6875 27.565624 338.07812 28.05Q338.46875 28.51875 338.625 29.2375Q338.71875 29.690624 338.71875 30.8625L338.71875 33.20625Q338.71875 35.659374 338.82812 36.315624Q338.9375 36.95625 339.28125 37.55L337.4375 37.55Q337.17188 37.003124 337.09375 36.26875ZM336.9375 32.346874Q335.98438 32.7375 334.0625 33.003124Q332.98438 33.159374 332.53125 33.3625Q332.09375 33.55 331.84375 33.925Q331.59375 34.3 331.59375 34.76875Q331.59375 35.471874 332.125 35.940624Q332.65625 36.409374 333.6875 36.409374Q334.70312 36.409374 335.48438 35.971874Q336.28125 35.51875 336.65625 34.753124Q336.9375 34.14375 336.9375 32.9875L336.9375 32.346874ZM345.15625 35.971874L345.40625 37.534374Q344.67188 37.690624 344.07812 37.690624Q343.125 37.690624 342.59375 37.39375Q342.07812 37.08125 341.85938 36.596874Q341.64062 36.096874 341.64062 34.51875L341.64062 28.55L340.35938 28.55L340.35938 27.175L341.64062 27.175L341.64062 24.6125L343.39062 23.55L343.39062 27.175L345.15625 27.175L345.15625 28.55L343.39062 28.55L343.39062 34.6125Q343.39062 35.3625 343.48438 35.58125Q343.57812 35.784374 343.78125 35.925Q344.0 36.05 344.39062 36.05Q344.67188 36.05 345.15625 35.971874ZM347.32812 25.253124L347.32812 23.2375L349.09375 23.2375L349.09375 25.253124L347.32812 25.253124ZM347.32812 37.55L347.32812 27.175L349.09375 27.175L349.09375 37.55L347.32812 37.55ZM351.3125 37.55L351.3125 27.175L352.90625 27.175L352.90625 28.659374Q354.04688 26.940624 356.20312 26.940624Q357.14062 26.940624 357.92188 27.284374Q358.71875 27.6125 359.10938 28.159374Q359.5 28.70625 359.65625 29.45625Q359.75 29.95625 359.75 31.175L359.75 37.55L357.98438 37.55L357.98438 31.2375Q357.98438 30.159374 357.78125 29.628124Q357.57812 29.096874 357.04688 28.784374Q356.53125 28.471874 355.82812 28.471874Q354.70312 28.471874 353.89062 29.190624Q353.07812 29.89375 353.07812 31.878124L353.07812 37.55L351.3125 37.55ZM362.0 38.409374L363.70312 38.659374Q363.8125 39.45625 364.29688 39.815624Q364.95312 40.3 366.09375 40.3Q367.3125 40.3 367.96875 39.815624Q368.64062 39.33125 368.875 38.45625Q369.01562 37.909374 369.0 36.190624Q367.84375 37.55 366.125 37.55Q363.98438 37.55 362.8125 36.003124Q361.64062 34.45625 361.64062 32.3Q361.64062 30.815624 362.17188 29.565624Q362.71875 28.315624 363.73438 27.628124Q364.76562 26.940624 366.14062 26.940624Q367.96875 26.940624 369.17188 28.425L369.17188 27.175L370.78125 27.175L370.78125 36.14375Q370.78125 38.565624 370.28125 39.565624Q369.79688 40.58125 368.71875 41.159374Q367.65625 41.753124 366.09375 41.753124Q364.25 41.753124 363.09375 40.925Q361.95312 40.096874 362.0 38.409374ZM363.45312 32.175Q363.45312 34.221874 364.26562 35.159374Q365.07812 36.096874 366.29688 36.096874Q367.5 36.096874 368.3125 35.159374Q369.14062 34.221874 369.14062 32.2375Q369.14062 30.33125 368.29688 29.3625Q367.45312 28.39375 366.26562 28.39375Q365.09375 28.39375 364.26562 29.346874Q363.45312 30.3 363.45312 32.175ZM372.60938 34.45625L374.35938 34.175Q374.5 35.221874 375.17188 35.784374Q375.84375 36.33125 377.04688 36.33125Q378.25 36.33125 378.82812 35.846874Q379.42188 35.346874 379.42188 34.690624Q379.42188 34.096874 378.90625 33.753124Q378.54688 33.51875 377.10938 33.159374Q375.17188 32.659374 374.42188 32.315624Q373.6875 31.95625 373.29688 31.33125Q372.90625 30.690624 372.90625 29.925Q372.90625 29.2375 373.21875 28.64375Q373.54688 28.05 374.09375 27.659374Q374.5 27.3625 375.20312 27.159374Q375.92188 26.940624 376.73438 26.940624Q377.95312 26.940624 378.875 27.3Q379.79688 27.64375 380.23438 28.253124Q380.67188 28.846874 380.84375 29.846874L379.125 30.08125Q379.0 29.284374 378.4375 28.846874Q377.875 28.39375 376.85938 28.39375Q375.64062 28.39375 375.125 28.8Q374.60938 29.190624 374.60938 29.721874Q374.60938 30.065624 374.82812 30.346874Q375.03125 30.628124 375.5 30.815624Q375.76562 30.909374 377.04688 31.253124Q378.92188 31.753124 379.65625 32.08125Q380.39062 32.39375 380.8125 33.003124Q381.23438 33.596874 381.23438 34.503124Q381.23438 35.378124 380.71875 36.159374Q380.20312 36.940624 379.23438 37.3625Q378.26562 37.784374 377.04688 37.784374Q375.03125 37.784374 373.96875 36.940624Q372.90625 36.096874 372.60938 34.45625Z" fill-rule="nonzero"/></svg>